<svg width="29" height="27" viewBox="0 0 29 27" fill="none" xmlns="http://www.w3.org/2000/svg">
<path d="M14.6057 8.18727C15.0601 8.18727 15.496 8.02731 15.8174 7.74256C16.1388 7.45782 16.3193 7.07162 16.3193 6.66893C16.3193 6.26624 16.1388 5.88004 15.8174 5.5953C15.496 5.31055 15.0601 5.15059 14.6057 5.15059C14.1512 5.15059 13.7153 5.31055 13.3939 5.5953C13.0726 5.88004 12.892 6.26624 12.892 6.66893C12.892 7.07162 13.0726 7.45782 13.3939 7.74256C13.7153 8.02731 14.1512 8.18727 14.6057 8.18727ZM16.2873 1.01057C15.812 0.668305 15.2182 0.481468 14.6057 0.481468C13.9932 0.481468 13.3993 0.668305 12.924 1.01057L1.49512 9.23999C0.10593 10.2441 0.905631 12.2362 2.69696 12.2362H3.18135V20.7389C1.82414 21.3523 0.896491 22.6014 0.896491 24.0449V25.3952C0.896491 25.6636 1.01685 25.9211 1.2311 26.1109C1.44535 26.3007 1.73593 26.4074 2.03892 26.4074H27.1724C27.4754 26.4074 27.766 26.3007 27.9802 26.1109C28.1944 25.9211 28.3148 25.6636 28.3148 25.3952V24.0449C28.3148 22.6034 27.3872 21.3523 26.03 20.7389V12.2362H26.5143C28.3057 12.2362 29.1054 10.2421 27.7139 9.23999L16.2896 1.00855L16.2873 1.01057ZM14.368 2.58155C14.4359 2.5329 14.5206 2.50636 14.6079 2.50636C14.6953 2.50636 14.7799 2.5329 14.8478 2.58155L25.4382 10.2117H3.77084L14.368 2.57952V2.58155ZM23.7451 20.334H21.4602V12.2362H23.7451V20.334ZM19.1754 20.334H15.7481V12.2362H19.1754V20.334ZM13.4632 20.334H10.0359V12.2362H13.4632V20.334ZM24.1267 22.3585C25.1777 22.3585 26.03 23.1136 26.03 24.0449V24.3829H3.18135V24.0449C3.18135 23.1136 4.0336 22.3585 5.08464 22.3585H24.1267ZM7.75107 20.334H5.46621V12.2362H7.75107V20.334Z" fill="white"/>
</svg>
