<svg width="19" height="20" viewBox="0 0 19 20" fill="none" xmlns="http://www.w3.org/2000/svg">
<path d="M9.53347 2.89166C6.92684 2.89166 4.80846 5.01004 4.80846 7.61666V9.89254C4.80846 10.3729 4.60371 11.1053 4.35959 11.5148L3.45396 13.0189C2.89484 13.9482 3.28071 14.9798 4.30446 15.3263C7.69859 16.4603 11.3605 16.4603 14.7546 15.3263C15.7075 15.0113 16.1248 13.8852 15.6051 13.0189L14.6995 11.5148C14.4632 11.1053 14.2585 10.3729 14.2585 9.89254V7.61666C14.2585 5.01791 12.1322 2.89166 9.53347 2.89166Z" stroke="#292D32" stroke-width="1.15596" stroke-miterlimit="10" stroke-linecap="round"/>
<path d="M10.9904 3.12006C10.7463 3.04918 10.4943 2.99406 10.2344 2.96256C9.47841 2.86806 8.75391 2.92318 8.07666 3.12006C8.30504 2.53731 8.87204 2.12781 9.53354 2.12781C10.195 2.12781 10.762 2.53731 10.9904 3.12006Z" stroke="#292D32" stroke-width="1.15596" stroke-miterlimit="10" stroke-linecap="round" stroke-linejoin="round"/>
<path d="M11.896 15.6098C11.896 16.9091 10.8329 17.9723 9.53352 17.9723C8.88777 17.9723 8.28927 17.7045 7.86402 17.2793C7.43877 16.854 7.17102 16.2555 7.17102 15.6098" stroke="#292D32" stroke-width="1.15596" stroke-miterlimit="10"/>
</svg>
