<svg width="20" height="20" viewBox="0 0 20 20" fill="none" xmlns="http://www.w3.org/2000/svg">
<path d="M7.53776 2.17505L4.68701 5.03367" stroke="#292D32" stroke-width="1.15596" stroke-miterlimit="10" stroke-linecap="round" stroke-linejoin="round"/>
<path d="M12.562 2.17505L15.4128 5.03367" stroke="#292D32" stroke-width="1.15596" stroke-miterlimit="10" stroke-linecap="round" stroke-linejoin="round"/>
<path d="M2.1748 6.78191C2.1748 5.32503 2.95443 5.20691 3.92305 5.20691H16.1766C17.1452 5.20691 17.9248 5.32503 17.9248 6.78191C17.9248 8.47503 17.1452 8.35691 16.1766 8.35691H3.92305C2.95443 8.35691 2.1748 8.47503 2.1748 6.78191Z" stroke="#292D32" stroke-width="1.15596"/>
<path d="M8.28589 11.625V14.4207" stroke="#292D32" stroke-width="1.15596" stroke-linecap="round"/>
<path d="M11.9083 11.625V14.4207" stroke="#292D32" stroke-width="1.15596" stroke-linecap="round"/>
<path d="M3.35608 8.47504L4.46645 15.279C4.71845 16.8068 5.32483 17.925 7.57708 17.925H12.3257C14.7748 17.925 15.1371 16.854 15.4206 15.3735L16.7436 8.47504" stroke="#292D32" stroke-width="1.15596" stroke-linecap="round"/>
</svg>
