<svg width="28" height="29" viewBox="0 0 28 29" fill="none" xmlns="http://www.w3.org/2000/svg">
<path fill-rule="evenodd" clip-rule="evenodd" d="M27.7877 14.5C27.7877 21.9959 21.711 28.0725 14.2151 28.0725C6.72206 28.0657 0.649459 21.993 0.642578 14.5C0.642578 7.00409 6.71921 0.927452 14.2151 0.927452C21.711 0.927452 27.7877 7.00409 27.7877 14.5ZM26.1057 14.5031C26.1057 7.93601 20.782 2.61232 14.2149 2.61232C7.65027 2.61834 2.33011 7.93851 2.32409 14.5031C2.32409 21.0702 7.64778 26.3939 14.2149 26.3939C20.782 26.3939 26.1057 21.0702 26.1057 14.5031Z" fill="#8E90A0"/>
<path d="M14.298 21.2036H14.2372C11.7333 21.1365 11.2575 19.6435 11.2278 19.553C11.0997 19.1209 10.6531 18.8672 10.2163 18.9783C9.77947 19.0894 9.50839 19.5256 9.60223 19.9664C9.62719 20.0725 10.2419 22.3861 13.376 22.8151V24.0632C13.376 24.5267 13.7518 24.9025 14.2153 24.9025C14.6789 24.9025 15.0546 24.5267 15.0546 24.0632V22.8151C16.8394 22.4828 18.4197 21.0211 18.7754 19.2379C18.9922 18.1552 19.0094 15.4532 14.5164 13.7215C12.1904 12.8245 11.0188 11.5047 11.298 10.0959C11.5492 8.84789 12.8206 7.80421 14.1904 7.80265C16.7192 7.87129 17.1795 9.39391 17.1951 9.44539C17.3188 9.8812 17.7655 10.1407 18.2053 10.0322C18.6452 9.92368 18.92 9.48624 18.8269 9.0429C18.8004 8.93525 18.1873 6.62168 15.0531 6.1911V4.94305C15.0337 4.49315 14.6633 4.13839 14.213 4.13839C13.7627 4.13839 13.3923 4.49315 13.3729 4.94305V6.21606C11.6412 6.57488 10.0078 7.99609 9.65215 9.77144C9.4353 10.8541 9.41814 13.5577 13.9127 15.2909C16.2372 16.1864 17.4119 17.5078 17.1295 18.9134C16.883 20.1459 15.5679 21.2036 14.298 21.2036Z" fill="#8E90A0"/>
</svg>
