<svg width="16" height="18" viewBox="0 0 16 18" fill="none" xmlns="http://www.w3.org/2000/svg">
<path d="M1 4.2H2.55556H15" stroke="#F71324" stroke-width="2" stroke-linecap="round" stroke-linejoin="round"/>
<path d="M14.4446 4.2C14.4446 3.64772 13.9968 3.2 13.4446 3.2C12.8923 3.2 12.4446 3.64772 12.4446 4.2H14.4446ZM3.55566 4.2C3.55566 3.64772 3.10795 3.2 2.55566 3.2C2.00338 3.2 1.55566 3.64772 1.55566 4.2H3.55566ZM3.889 4.2C3.889 4.75228 4.33671 5.2 4.889 5.2C5.44128 5.2 5.889 4.75228 5.889 4.2H3.889ZM10.1112 4.2C10.1112 4.75228 10.5589 5.2 11.1112 5.2C11.6635 5.2 12.1112 4.75228 12.1112 4.2H10.1112ZM12.4446 4.2V15.4H14.4446V4.2H12.4446ZM12.4446 15.4C12.4446 15.7581 12.1695 16 11.889 16V18C13.3268 18 14.4446 16.8092 14.4446 15.4H12.4446ZM11.889 16H4.11122V18H11.889V16ZM4.11122 16C3.83076 16 3.55566 15.7581 3.55566 15.4H1.55566C1.55566 16.8092 2.67346 18 4.11122 18V16ZM3.55566 15.4V4.2H1.55566V15.4H3.55566ZM5.889 4.2V2.6H3.889V4.2H5.889ZM5.889 2.6C5.889 2.24189 6.1641 2 6.44455 2V0C5.00679 0 3.889 1.1908 3.889 2.6H5.889ZM6.44455 2H9.55566V0H6.44455V2ZM9.55566 2C9.83612 2 10.1112 2.24189 10.1112 2.6H12.1112C12.1112 1.1908 10.9934 0 9.55566 0V2ZM10.1112 2.6V4.2H12.1112V2.6H10.1112Z" fill="#F71324"/>
<path d="M6.44455 8.2V13" stroke="#F71324" stroke-width="2" stroke-linecap="round" stroke-linejoin="round"/>
<path d="M9.55564 8.2V13" stroke="#F71324" stroke-width="2" stroke-linecap="round" stroke-linejoin="round"/>
</svg>
