<svg width="20" height="20" viewBox="0 0 20 20" fill="none" xmlns="http://www.w3.org/2000/svg">
<g clip-path="url(#clip0_4_808)">
<path d="M17.3833 6.975L11.6083 2.35833C10.7167 1.64167 9.275 1.64167 8.39166 2.35L2.61666 6.975C1.96666 7.49167 1.55 8.58333 1.69166 9.4L2.8 16.0333C3 17.2167 4.13333 18.175 5.33333 18.175H14.6667C15.8583 18.175 17 17.2083 17.2 16.0333L18.3083 9.4C18.4417 8.58333 18.025 7.49167 17.3833 6.975ZM10 12.9167C8.85 12.9167 7.91666 11.9833 7.91666 10.8333C7.91666 9.68333 8.85 8.75 10 8.75C11.15 8.75 12.0833 9.68333 12.0833 10.8333C12.0833 11.9833 11.15 12.9167 10 12.9167Z" fill="#6F6F6F"/>
</g>
<defs>
<clipPath id="clip0_4_808">
<rect width="20" height="20" fill="white"/>
</clipPath>
</defs>
</svg>
