<svg width="19" height="19" viewBox="0 0 19 19" fill="none" xmlns="http://www.w3.org/2000/svg">
<path d="M9.50036 0C9.71633 0 9.92345 0.0857937 10.0762 0.238508C10.2289 0.391222 10.3147 0.598346 10.3147 0.814316C10.3147 1.03029 10.2289 1.23741 10.0762 1.39013C9.92345 1.54284 9.71633 1.62863 9.50036 1.62863C7.41265 1.62863 5.41044 2.45797 3.93421 3.93421C2.45797 5.41044 1.62863 7.41265 1.62863 9.50036C1.62863 11.5881 2.45797 13.5903 3.93421 15.0665C5.41044 16.5427 7.41265 17.3721 9.50036 17.3721C9.71633 17.3721 9.92345 17.4579 10.0762 17.6106C10.2289 17.7633 10.3147 17.9704 10.3147 18.1864C10.3147 18.4024 10.2289 18.6095 10.0762 18.7622C9.92345 18.9149 9.71633 19.0007 9.50036 19.0007C6.98071 19.0007 4.56425 17.9998 2.78259 16.2181C1.00093 14.4365 0 12.02 0 9.50036C0 6.98071 1.00093 4.56425 2.78259 2.78259C4.56425 1.00093 6.98071 0 9.50036 0Z" fill="#01A7BF"/>
<path d="M14.3538 6.81851C14.21 6.66415 14.1317 6.45997 14.1354 6.24901C14.1391 6.03805 14.2246 5.83676 14.3738 5.68757C14.523 5.53837 14.7242 5.45291 14.9352 5.44919C15.1462 5.44546 15.3503 5.52377 15.5047 5.66761L18.762 8.92488C18.9145 9.07756 19.0001 9.28453 19.0001 9.50033C19.0001 9.71612 18.9145 9.92309 18.762 10.0758L15.5047 13.333C15.4302 13.413 15.3403 13.4772 15.2404 13.5217C15.1405 13.5662 15.0326 13.5902 14.9233 13.5921C14.814 13.594 14.7054 13.5739 14.604 13.533C14.5026 13.492 14.4105 13.431 14.3331 13.3537C14.2558 13.2764 14.1948 13.1843 14.1539 13.0829C14.1129 12.9815 14.0928 12.8729 14.0947 12.7635C14.0967 12.6542 14.1206 12.5464 14.1651 12.4465C14.2096 12.3466 14.2738 12.2567 14.3538 12.1821L16.2213 10.3146H7.32896C7.11299 10.3146 6.90587 10.2289 6.75316 10.0761C6.60044 9.92342 6.51465 9.7163 6.51465 9.50033C6.51465 9.28436 6.60044 9.07723 6.75316 8.92452C6.90587 8.77181 7.11299 8.68601 7.32896 8.68601H16.2213L14.3538 6.81851Z" fill="#01A7BF"/>
</svg>
