<svg width="20" height="20" viewBox="0 0 20 20" fill="none" xmlns="http://www.w3.org/2000/svg">
<path d="M15.8333 8.95832H14.1667C12.15 8.95832 11.0417 7.84999 11.0417 5.83332V4.16666C11.0417 2.14999 12.15 1.04166 14.1667 1.04166H15.8333C17.85 1.04166 18.9583 2.14999 18.9583 4.16666V5.83332C18.9583 7.84999 17.85 8.95832 15.8333 8.95832ZM14.1667 2.29166C12.85 2.29166 12.2917 2.84999 12.2917 4.16666V5.83332C12.2917 7.14999 12.85 7.70832 14.1667 7.70832H15.8333C17.15 7.70832 17.7083 7.14999 17.7083 5.83332V4.16666C17.7083 2.84999 17.15 2.29166 15.8333 2.29166H14.1667Z" fill="#6F6F6F"/>
<path d="M5.83333 18.9583H4.16667C2.15 18.9583 1.04167 17.85 1.04167 15.8333V14.1667C1.04167 12.15 2.15 11.0417 4.16667 11.0417H5.83333C7.85 11.0417 8.95833 12.15 8.95833 14.1667V15.8333C8.95833 17.85 7.85 18.9583 5.83333 18.9583ZM4.16667 12.2917C2.85 12.2917 2.29167 12.85 2.29167 14.1667V15.8333C2.29167 17.15 2.85 17.7083 4.16667 17.7083H5.83333C7.15 17.7083 7.70833 17.15 7.70833 15.8333V14.1667C7.70833 12.85 7.15 12.2917 5.83333 12.2917H4.16667Z" fill="#6F6F6F"/>
<path d="M5 8.95832C2.81667 8.95832 1.04167 7.18332 1.04167 4.99999C1.04167 2.81666 2.81667 1.04166 5 1.04166C7.18333 1.04166 8.95833 2.81666 8.95833 4.99999C8.95833 7.18332 7.18333 8.95832 5 8.95832ZM5 2.29166C3.50833 2.29166 2.29167 3.50832 2.29167 4.99999C2.29167 6.49166 3.50833 7.70832 5 7.70832C6.49167 7.70832 7.70833 6.49166 7.70833 4.99999C7.70833 3.50832 6.49167 2.29166 5 2.29166Z" fill="#6F6F6F"/>
<path d="M15 18.9583C12.8167 18.9583 11.0417 17.1833 11.0417 15C11.0417 12.8167 12.8167 11.0417 15 11.0417C17.1833 11.0417 18.9583 12.8167 18.9583 15C18.9583 17.1833 17.1833 18.9583 15 18.9583ZM15 12.2917C13.5083 12.2917 12.2917 13.5083 12.2917 15C12.2917 16.4917 13.5083 17.7083 15 17.7083C16.4917 17.7083 17.7083 16.4917 17.7083 15C17.7083 13.5083 16.4917 12.2917 15 12.2917Z" fill="#6F6F6F"/>
</svg>
