<svg width="20" height="20" viewBox="0 0 20 20" fill="none" xmlns="http://www.w3.org/2000/svg">
<path d="M13.75 7.19168C13.4083 7.19168 13.125 6.90835 13.125 6.56668V5.41668C13.125 4.54168 12.75 3.69168 12.1 3.10002C11.4417 2.50002 10.5917 2.22502 9.69167 2.30835C8.19167 2.45002 6.875 3.98335 6.875 5.58335V6.39168C6.875 6.73335 6.59167 7.01668 6.25 7.01668C5.90833 7.01668 5.625 6.73335 5.625 6.39168V5.57502C5.625 3.33335 7.43333 1.26668 9.575 1.05835C10.825 0.941682 12.025 1.33335 12.9417 2.17502C13.85 3.00002 14.375 4.18335 14.375 5.41668V6.56668C14.375 6.90835 14.0917 7.19168 13.75 7.19168Z" fill="#6F6F6F"/>
<path d="M12.5 18.9583H7.5C3.65 18.9583 2.93333 17.1667 2.75 15.425L2.125 10.4333C2.03333 9.53332 2 8.24166 2.875 7.27499C3.625 6.44166 4.86667 6.04166 6.66667 6.04166H13.3333C15.1417 6.04166 16.3833 6.44999 17.125 7.27499C17.9917 8.24166 17.9667 9.53332 17.875 10.4167L17.25 15.425C17.0667 17.1667 16.35 18.9583 12.5 18.9583ZM6.66667 7.29166C5.25833 7.29166 4.29167 7.56666 3.8 8.11666C3.39167 8.56666 3.25833 9.25832 3.36667 10.2917L3.99167 15.2833C4.13333 16.6167 4.5 17.7167 7.5 17.7167H12.5C15.5 17.7167 15.8667 16.625 16.0083 15.3L16.6333 10.2917C16.7417 9.27499 16.6083 8.58332 16.2 8.12499C15.7083 7.56666 14.7417 7.29166 13.3333 7.29166H6.66667Z" fill="#6F6F6F"/>
<path d="M12.85 10.9583C12.3833 10.9583 12.0083 10.5833 12.0083 10.125C12.0083 9.66666 12.3833 9.29166 12.8417 9.29166C13.3 9.29166 13.675 9.66666 13.675 10.125C13.675 10.5833 13.3083 10.9583 12.85 10.9583Z" fill="#6F6F6F"/>
<path d="M7.01667 10.9583C6.55 10.9583 6.175 10.5833 6.175 10.125C6.175 9.66666 6.55 9.29166 7.00834 9.29166C7.46667 9.29166 7.84167 9.66666 7.84167 10.125C7.84167 10.5833 7.475 10.9583 7.01667 10.9583Z" fill="#6F6F6F"/>
</svg>
