<svg width="14" height="14" viewBox="0 0 14 14" fill="none" xmlns="http://www.w3.org/2000/svg">
<path fill-rule="evenodd" clip-rule="evenodd" d="M4.1029 3.5C4.27439 2.22552 5.54802 1.16666 6.99996 1.16666C8.45191 1.16666 9.72554 2.22552 9.89703 3.5H11.5774C12.2217 3.5 12.744 4.02233 12.744 4.66666C12.744 4.72187 12.7401 4.777 12.7323 4.83166L11.7323 11.8317C11.6502 12.4064 11.158 12.8333 10.5774 12.8333H3.42255C2.84196 12.8333 2.34972 12.4064 2.26761 11.8317L1.26761 4.83166C1.17649 4.1938 1.6197 3.60285 2.25756 3.51172C2.31221 3.50392 2.36735 3.5 2.42255 3.5H4.1029ZM8.70787 3.5C8.53054 2.88055 7.81546 2.33333 6.99994 2.33333C6.18442 2.33333 5.46934 2.88055 5.29201 3.5H8.70787ZM2.42256 4.66667H4.0833V5.83333H5.24997V4.66667H8.74997V5.83333H9.91663V4.66667H11.5774L10.5774 11.6667H3.42256L2.42256 4.66667Z" fill="#F98B25"/>
</svg>
