<svg width="35" height="32" viewBox="0 0 35 32" fill="none" xmlns="http://www.w3.org/2000/svg">
<path d="M7.05493 16.565C7.0965 17.2419 7.71506 17.759 8.43651 17.72C9.15797 17.681 9.70912 17.1006 9.66755 16.4237C9.62598 15.7468 9.00743 15.2297 8.28597 15.2687C7.56452 15.3077 7.01336 15.888 7.05493 16.565Z" fill="white"/>
<path d="M14.8927 16.1412C14.7953 14.5549 14.0461 13.0658 12.8027 11.987C12.5475 11.766 12.2092 11.6491 11.8622 11.6621C11.5152 11.6751 11.1879 11.8169 10.9523 12.0563C10.7168 12.2957 10.5922 12.6131 10.6061 12.9387C10.6199 13.2643 10.771 13.5714 11.0262 13.7924C11.7482 14.4517 12.1809 15.3409 12.2388 16.2847C12.2968 17.2285 11.9759 18.1584 11.3393 18.8912C11.1129 19.1383 11.0004 19.4596 11.0265 19.7845C11.0525 20.1094 11.2151 20.4113 11.4785 20.6238C11.7418 20.8362 12.0843 20.9418 12.4306 20.9173C12.7769 20.8928 13.0986 20.7403 13.325 20.4932C14.4282 19.2876 14.9901 17.7276 14.8927 16.1412ZM21.4242 15.7881C21.3323 14.3078 20.9237 12.86 20.2229 11.531C19.522 10.202 18.5433 9.01887 17.3449 8.05222C17.2119 7.94717 17.0582 7.86772 16.8925 7.81841C16.7269 7.7691 16.5524 7.75088 16.3793 7.76481C16.2061 7.77875 16.0375 7.82454 15.8832 7.8996C15.7289 7.97465 15.5918 8.07749 15.4799 8.20224C15.2538 8.45418 15.1436 8.78008 15.1736 9.10825C15.1884 9.27074 15.2372 9.4289 15.3172 9.57369C15.3972 9.71849 15.5068 9.84708 15.6398 9.95213C16.5739 10.7046 17.3368 11.6261 17.8827 12.6615C18.4287 13.6969 18.7466 14.825 18.8175 15.9782C18.8883 17.1315 18.7106 18.2864 18.2949 19.3737C17.8793 20.4611 17.2343 21.4587 16.3985 22.3069C16.282 22.4271 16.1921 22.5678 16.134 22.7208C16.0759 22.8738 16.0508 23.0361 16.06 23.1983C16.0757 23.4378 16.1658 23.6677 16.3192 23.8597C16.4726 24.0516 16.6826 24.1972 16.9233 24.2783C17.1639 24.3595 17.4246 24.3728 17.6731 24.3165C17.9217 24.2601 18.1472 24.1367 18.3219 23.9615C19.4 22.866 20.2307 21.5771 20.7638 20.1725C21.297 18.7678 21.5216 17.2764 21.4242 15.7881Z" fill="white"/>
<path d="M23.554 27.6261C26.6462 24.2498 28.2216 19.8796 27.9487 15.4354C27.6757 10.9912 25.5758 6.81971 22.0908 3.799C21.833 3.60541 21.5067 3.51045 21.1773 3.53317C20.848 3.55589 20.54 3.69461 20.3151 3.92151C20.0902 4.14841 19.9651 4.4467 19.9648 4.75655C19.9645 5.06639 20.0891 5.36488 20.3136 5.59213C23.3074 8.18195 25.1118 11.7618 25.3461 15.5761C25.5803 19.3905 24.2261 23.1411 21.5691 26.0364C21.3496 26.2762 21.2372 26.5862 21.2552 26.9019C21.2661 27.0669 21.3123 27.2282 21.3912 27.3761C21.4701 27.524 21.58 27.6554 21.7144 27.7625C21.978 27.9724 22.3195 28.0759 22.6642 28.0504C23.0089 28.0248 23.3288 27.8723 23.554 27.6261Z" fill="white"/>
</svg>
